<svg width="16" height="13" viewBox="0 0 16 13" fill="none" xmlns="http://www.w3.org/2000/svg">
<path d="M11.3346 5.70297C11.3346 5.47256 11.3346 5.35735 11.3693 5.25465C11.4701 4.95629 11.7358 4.84051 12.002 4.71926C12.3013 4.58295 12.4509 4.51479 12.5992 4.5028C12.7675 4.48919 12.9361 4.52545 13.0799 4.60619C13.2706 4.71323 13.4037 4.91662 13.5398 5.08201C14.1688 5.8459 14.4832 6.22784 14.5983 6.64904C14.6911 6.98894 14.6911 7.34439 14.5983 7.6843C14.4305 8.29862 13.9002 8.81357 13.5078 9.29026C13.307 9.5341 13.2067 9.65602 13.0799 9.72714C12.9361 9.80788 12.7675 9.84415 12.5992 9.83053C12.4509 9.81854 12.3013 9.75039 12.002 9.61408C11.7358 9.49283 11.4701 9.37704 11.3693 9.07869C11.3346 8.97598 11.3346 8.86078 11.3346 8.63037V5.70297Z" stroke="#64748B"/>
<path d="M4.66797 5.70308C4.66797 5.41291 4.65982 5.15214 4.42524 4.94813C4.33992 4.87393 4.2268 4.82241 4.00057 4.71937C3.70131 4.58306 3.55167 4.5149 3.40341 4.50291C2.95858 4.46693 2.71925 4.77054 2.46272 5.08212C1.8338 5.84601 1.51934 6.22795 1.40428 6.64915C1.31142 6.98905 1.31142 7.3445 1.40428 7.68441C1.5721 8.29873 2.10231 8.81368 2.49478 9.29037C2.74216 9.59085 2.97848 9.86501 3.40341 9.83064C3.55167 9.81865 3.70131 9.7505 4.00057 9.61419C4.2268 9.51115 4.33992 9.45962 4.42524 9.38542C4.65982 9.18142 4.66797 8.92064 4.66797 8.63048V5.70308Z" stroke="#64748B"/>
<path d="M3.33459 4.5C3.33459 2.29086 5.42393 0.5 8.00126 0.5C10.5786 0.5 12.6679 2.29086 12.6679 4.5" stroke="#64748B" stroke-linecap="square" stroke-linejoin="round"/>
<path d="M12.668 9.83334V10.3667C12.668 11.5449 11.4741 12.5 10.0013 12.5H8.66797" stroke="#64748B" stroke-linecap="round" stroke-linejoin="round"/>
</svg>
