<svg width="132" height="33" viewBox="0 0 132 33" fill="none" xmlns="http://www.w3.org/2000/svg">
<g clip-path="url(#clip0_23181_1751)">
<path d="M35.7038 21.1593C35.7038 22.2244 35.717 23.2894 35.7038 24.3523C35.6906 25.2718 35.2429 25.79 34.2815 25.7856C33.5119 25.7856 32.738 25.7856 31.9706 25.7856C30.3653 25.7856 30.0301 25.4504 30.0279 23.8737C30.0279 21.2277 30.0279 18.5816 30.0279 15.9355C30.0279 12.0428 30.0279 8.15232 30.0279 4.26405C30.0279 2.51543 30.1404 2.32578 31.8736 2.08764C35.4789 1.5937 39.0974 1.3291 42.6917 2.14718C45.6928 2.83075 47.4061 4.87264 47.6288 7.94651C47.7104 9.07992 47.7766 10.2288 47.5671 11.3511C46.8769 15.0579 44.6476 16.9278 40.6784 17.1571C39.3554 17.2321 38.0434 17.3776 36.7225 17.2012C35.9728 17.102 35.6531 17.3997 35.695 18.1869C35.7501 19.1747 35.7082 20.1714 35.7082 21.1593H35.7038ZM37.7964 12.78C38.749 12.78 39.695 12.7514 40.5858 12.339C41.7589 11.8054 42.2749 10.6499 42.1161 8.89469C41.9816 7.41288 41.3289 6.64552 39.9993 6.33461C38.8372 6.06338 37.6729 6.1141 36.4998 6.19789C35.9375 6.24199 35.6707 6.48234 35.695 7.10197C35.7391 8.27507 35.695 9.44816 35.7082 10.6301C35.7258 13.0954 35.4237 12.6632 37.7964 12.7778V12.78Z" fill="white"/>
<path d="M91.4898 14.9631C92.5725 13.4438 93.5824 12.0303 94.5879 10.6169C94.7357 10.3963 94.8702 10.1758 95.0157 9.97739C96.8569 7.3313 96.8591 7.3313 100.103 7.48786C100.718 7.51873 101.267 7.63119 101.547 8.26846C101.803 8.8506 101.582 9.30925 101.23 9.77893C99.9926 11.4195 98.804 13.0998 97.5493 14.7161C96.9385 15.4989 96.8878 16.1406 97.4545 16.9829C98.8966 19.102 100.251 21.2806 101.644 23.4239C101.999 23.9664 102.306 24.5 101.973 25.1527C101.627 25.8451 100.974 25.801 100.348 25.7922C99.1392 25.7745 97.7235 26.1273 96.782 25.6136C95.8999 25.1284 95.4986 23.7304 94.8922 22.7315C93.922 21.135 92.9606 19.5342 91.9881 17.9399C91.8492 17.7194 91.7985 17.3798 91.2803 17.3313C91.2803 19.0954 91.2561 20.8352 91.2803 22.5728C91.3354 26.0105 91.2605 25.8252 88.0102 25.7922C87.8999 25.7922 87.7897 25.7922 87.6794 25.7922C86.3432 25.7723 85.9859 25.4217 85.9837 24.1009C85.9837 21.3078 85.9837 18.5147 85.9837 15.7216C85.9837 11.2056 85.9837 6.68816 85.9837 2.16923C85.9837 0.857213 86.288 0.54409 87.5824 0.513219C88.3145 0.497784 89.051 0.491168 89.7875 0.513219C90.9584 0.561731 91.2715 0.883671 91.2737 2.05677C91.2737 5.94872 91.2737 9.84287 91.2737 13.7436C91.2958 14.1009 91.212 14.4691 91.4898 14.9631Z" fill="white"/>
<path d="M65.6948 17.7965C65.6948 19.4878 65.6948 21.1769 65.6948 22.8682C65.6948 23.726 65.4743 24.4118 64.5526 24.7866C61.2013 26.151 57.509 26.4407 53.9859 25.6157C51.2781 24.9917 49.9617 22.7491 50.1755 19.737C50.4225 16.231 52.1601 14.4845 55.8117 14.0744C56.5041 13.9972 57.1965 13.9134 57.8911 13.8539C58.6232 13.7943 58.9539 13.318 58.965 12.6852C58.976 12.0523 58.6011 11.5827 57.8823 11.5518C56.3407 11.5087 54.7982 11.5883 53.2693 11.7899C52.5857 11.8759 51.761 12.1163 51.3707 11.3666C51.1188 10.9205 50.9667 10.4252 50.9248 9.91469C50.8829 9.40418 50.9523 8.89065 51.1281 8.40955C51.2803 8.01264 51.6353 7.88916 52.0102 7.83624C55.17 7.37317 58.3343 6.87263 61.514 7.65984C64.2814 8.34341 65.7037 10.178 65.7213 13.0534C65.7345 14.6323 65.7213 16.2133 65.7213 17.7921L65.6948 17.7965ZM60.5239 19.4085C60.5085 17.4239 60.2571 17.1703 58.2836 17.4018C57.3597 17.5099 56.3431 17.543 55.7323 18.4294C55.084 19.3732 55.2715 21.0005 56.0477 21.543C57.0223 22.2243 59.7963 22.1053 60.299 21.3379C60.4296 21.1188 60.5053 20.8715 60.5195 20.6168C60.5526 20.2155 60.5239 19.812 60.5239 19.4085Z" fill="white"/>
<path d="M123.429 17.2122C124.311 14.4294 125.224 11.6996 126.015 8.94102C126.342 7.801 126.972 7.39747 128.079 7.47906C128.741 7.52316 129.402 7.44378 130.064 7.49449C131.151 7.57829 131.625 8.27508 131.274 9.30926C128.775 16.6963 126.267 24.0818 123.748 31.4658C123.495 32.2134 123.043 32.5176 122.278 32.4868C121.581 32.4603 120.882 32.5 120.185 32.4868C118.672 32.4669 118.238 31.8253 118.754 30.3721C119.349 28.6874 119.947 27.005 120.589 25.3401C120.706 25.0593 120.762 24.7568 120.753 24.4527C120.744 24.1485 120.671 23.8497 120.538 23.5761C118.531 18.9969 116.547 14.4096 114.584 9.81423C113.887 8.20233 114.364 7.48567 116.143 7.49008C119.713 7.49008 119.06 7.17476 120.368 10.3368C121.221 12.3942 122.022 14.4713 122.86 16.5353C122.928 16.7492 122.955 17.0403 123.429 17.2122Z" fill="white"/>
<path d="M20.3347 12.2288C20.3347 13.8804 20.3104 15.5364 20.3347 17.1836C20.3479 17.8451 20.1472 18.2861 19.5585 18.6147C17.2321 19.9377 14.9278 21.274 12.6147 22.6169C11.9664 22.9917 11.2917 23.1086 10.9036 22.3699C10.5155 21.6312 10.8859 21.0777 11.6092 20.6764C13.3049 19.7392 14.9741 18.7558 16.6522 17.7856C17.8672 17.0799 17.8804 16.3368 16.6721 15.6356C11.8606 12.8425 7.04618 10.0597 2.22884 7.28721C1.69521 6.9807 1.07559 6.78225 1.08441 5.9796C1.08441 5.22767 1.67536 5.02921 2.17151 4.74035C4.37658 3.45479 6.60591 2.18908 8.80657 0.883679C9.47911 0.484561 10.0679 0.442664 10.7514 0.848397C13.6577 2.5463 16.5684 4.23539 19.5056 5.87817C20.1517 6.2398 20.3457 6.69184 20.3325 7.38203C20.3126 8.99614 20.3325 10.6213 20.3347 12.2288Z" fill="white"/>
<path d="M0.00668192 24.5794C0.00668192 22.4515 0.0243225 20.3258 0.00668192 18.1979C0.00668192 17.5364 0.194113 17.0799 0.778457 16.7491C3.13347 15.4085 5.46644 14.0281 7.83469 12.7051C9.21065 11.9377 9.88099 12.3677 9.88099 13.9774C9.88099 18.167 9.85233 22.339 9.88099 26.5198C9.88099 27.3136 9.62521 27.8186 8.93061 28.2089C6.63072 29.4989 4.3617 30.855 2.06401 32.1406C0.740969 32.8859 0.035347 32.4669 0.0265268 30.9608C-0.00213918 28.8329 0.00668192 26.7183 0.00668192 24.5794Z" fill="#00B795"/>
<path d="M77.1137 26.0083C75.9053 26.0325 74.708 26.0083 73.5393 25.6003C70.7917 24.6477 69.8899 22.3853 69.5062 19.8319C69.1178 17.3643 69.1716 14.8473 69.665 12.3986C70.2427 9.62458 72.0486 7.91565 74.8491 7.47023C76.9917 7.14059 79.1772 7.21538 81.2923 7.69073C82.4742 7.94652 82.7058 8.48235 82.4478 10.2949C82.289 11.3975 81.8811 11.7723 80.7653 11.6532C79.526 11.5209 78.3022 11.296 77.0564 11.6025C75.5525 11.9752 74.924 12.6433 74.7609 14.145C74.5922 15.7871 74.5922 17.4422 74.7609 19.0843C74.9064 20.5683 75.6826 21.2894 77.1865 21.6158C78.4059 21.8782 79.5856 21.6753 80.7873 21.5761C81.9119 21.4812 82.3066 21.8363 82.4478 22.9586C82.4985 23.3578 82.5249 23.7613 82.5426 24.1648C82.5734 24.919 82.278 25.4019 81.4775 25.5673C80.0421 25.8648 78.5796 26.0126 77.1137 26.0083Z" fill="white"/>
<path d="M110.912 13.3026C110.912 16.941 110.912 20.5779 110.912 24.2133C110.912 25.4261 110.584 25.7723 109.369 25.7944C108.597 25.8076 107.825 25.7944 107.056 25.7944C106.048 25.7944 105.585 25.3048 105.591 24.3104C105.591 22.9145 105.591 21.5187 105.591 20.1207C105.591 14.2038 105.591 8.28903 105.591 2.37649C105.591 0.775611 105.841 0.533055 107.433 0.504389C107.946 0.493364 108.462 0.504389 108.976 0.504389C110.648 0.504389 110.91 0.780025 110.91 2.50439L110.912 13.3026Z" fill="white"/>
</g>
<defs>
<clipPath id="clip0_23181_1751">
<rect width="131.387" height="32" fill="white" transform="translate(0 0.5)"/>
</clipPath>
</defs>
</svg>
