<svg width="16" height="15" viewBox="0 0 16 15" fill="none" xmlns="http://www.w3.org/2000/svg">
<path d="M2.00122 6.8335L2.00122 9.8335C2.00122 11.7191 2.00122 12.6619 2.58701 13.2477C3.17279 13.8335 4.1156 13.8335 6.00122 13.8335H10.0012C11.8868 13.8335 12.8296 13.8335 13.4154 13.2477C14.0012 12.6619 14.0012 11.7191 14.0012 9.8335V6.8335" stroke="#64748B"/>
<path d="M5.31507 5.50017L5.79806 5.37087C5.73317 5.12847 5.49866 4.97171 5.24987 5.00444C5.00107 5.03716 4.81507 5.24923 4.81507 5.50017H5.31507ZM1.41024 6.1938L1.87879 6.01927L1.41024 6.1938ZM14.5923 6.1938L14.1237 6.01927L14.1237 6.01927L14.5923 6.1938ZM10.6875 5.50017H11.1875C11.1875 5.24923 11.0015 5.03716 10.7527 5.00444C10.5039 4.97171 10.2694 5.12847 10.2045 5.37087L10.6875 5.50017ZM1.63971 4.8853L2.07305 5.13474H2.07305L1.63971 4.8853ZM2.28215 3.7692L1.84881 3.51976H1.84881L2.28215 3.7692ZM14.3628 4.8853L13.9295 5.13473L13.9295 5.13474L14.3628 4.8853ZM13.7204 3.7692L14.1537 3.51976L14.1537 3.51976L13.7204 3.7692ZM14.6594 5.65278L14.1612 5.69427L14.1612 5.69428L14.6594 5.65278ZM1.34309 5.65278L0.844814 5.61129L1.34309 5.65278ZM4.81507 5.50017C4.81507 6.32516 4.14039 7.00017 3.30043 7.00017V8.00017C4.68578 8.00017 5.81507 6.88431 5.81507 5.50017H4.81507ZM3.30043 7.00017C2.64714 7.00017 2.09171 6.59088 1.87879 6.01927L0.941695 6.36833C1.29696 7.32207 2.21971 8.00017 3.30043 8.00017V7.00017ZM14.1237 6.01927C13.9108 6.59088 13.3554 7.00017 12.7021 7.00017V8.00017C13.7828 8.00017 14.7056 7.32207 15.0608 6.36833L14.1237 6.01927ZM12.7021 7.00017C11.8621 7.00017 11.1875 6.32516 11.1875 5.50017H10.1875C10.1875 6.88431 11.3167 8.00017 12.7021 8.00017V7.00017ZM8.00126 7.00017C6.92882 7.00017 6.04578 6.29623 5.79806 5.37087L4.83208 5.62946C5.20015 7.0044 6.48896 8.00017 8.00126 8.00017V7.00017ZM10.2045 5.37087C9.95674 6.29623 9.07371 7.00017 8.00126 7.00017V8.00017C9.51356 8.00017 10.8024 7.0044 11.1704 5.62946L10.2045 5.37087ZM2.07305 5.13474L2.71549 4.01863L1.84881 3.51976L1.20637 4.63587L2.07305 5.13474ZM14.7962 4.63587L14.1537 3.51976L13.287 4.01863L13.9295 5.13473L14.7962 4.63587ZM3.94467 1.66683H12.0579V0.666832H3.94467V1.66683ZM13.8736 2.47306C13.8736 1.47207 13.0572 0.666832 12.0579 0.666832V1.66683C12.5118 1.66683 12.8736 2.03122 12.8736 2.47306H13.8736ZM14.1537 3.51976C13.9701 3.20076 13.8736 2.83998 13.8736 2.47306H12.8736C12.8736 3.01541 13.0162 3.54817 13.287 4.01863L14.1537 3.51976ZM3.12888 2.47306C3.12888 2.03122 3.49068 1.66683 3.94467 1.66683V0.666832C2.94528 0.666832 2.12888 1.47207 2.12888 2.47306H3.12888ZM15.0608 6.36833C15.0894 6.2916 15.1308 6.18478 15.152 6.04977C15.173 5.91558 15.1715 5.77654 15.1577 5.61129L14.1612 5.69428C14.1719 5.82385 14.1674 5.87325 14.164 5.89483C14.1608 5.9156 14.1563 5.93187 14.1237 6.01927L15.0608 6.36833ZM13.9295 5.13474C14.1128 5.45328 14.1469 5.52306 14.1612 5.69427L15.1577 5.61129C15.1229 5.19286 14.9756 4.94754 14.7962 4.63587L13.9295 5.13474ZM2.71549 4.01863C2.9863 3.54817 3.12888 3.01541 3.12888 2.47306H2.12888C2.12888 2.83998 2.03244 3.20076 1.84881 3.51976L2.71549 4.01863ZM1.87879 6.01927C1.84624 5.93187 1.84175 5.9156 1.8385 5.89483C1.83511 5.87325 1.83058 5.82385 1.84136 5.69428L0.844814 5.61129C0.831053 5.77654 0.829526 5.91558 0.850573 6.04977C0.871747 6.18478 0.913113 6.2916 0.941695 6.36833L1.87879 6.01927ZM1.20637 4.63586C1.02697 4.94754 0.879657 5.19286 0.844814 5.61129L1.84136 5.69428C1.85562 5.52306 1.88969 5.45328 2.07305 5.13474L1.20637 4.63586Z" fill="#64748B"/>
<path d="M4.66797 11.5002H7.33464" stroke="#64748B" stroke-linecap="round"/>
</svg>
