<svg width="14" height="15" viewBox="0 0 14 15" fill="none" xmlns="http://www.w3.org/2000/svg">
<path d="M7 14.1668C6.45455 14.1668 5.93346 13.9467 4.89129 13.5065C2.2971 12.4106 1 11.8627 1 10.941C1 10.683 1 6.20984 1 4.16682M7 14.1668C7.54546 14.1668 8.06654 13.9467 9.10872 13.5065C11.7029 12.4106 13 11.8627 13 10.941V4.16682M7 14.1668L7 7.07005" stroke="#64748B" stroke-linecap="round" stroke-linejoin="round"/>
<path d="M4.55061 5.96108L2.60314 5.01873C1.53438 4.50156 1 4.24298 1 3.8335C1 3.42401 1.53438 3.16543 2.60314 2.64827L4.55061 1.70591C5.75256 1.1243 6.35353 0.833496 7 0.833496C7.64647 0.833496 8.24744 1.1243 9.44939 1.70591L11.3969 2.64826C12.4656 3.16543 13 3.42401 13 3.8335C13 4.24298 12.4656 4.50156 11.3969 5.01873L9.44939 5.96108C8.24744 6.54269 7.64647 6.8335 7 6.8335C6.35353 6.8335 5.75256 6.54269 4.55061 5.96108Z" stroke="#64748B" stroke-linecap="round" stroke-linejoin="round"/>
<path d="M3 7.50016L4.33333 8.16683" stroke="#64748B" stroke-linecap="round" stroke-linejoin="round"/>
<path d="M10.3334 2.16682L3.66669 5.50016" stroke="#64748B" stroke-linecap="round" stroke-linejoin="round"/>
</svg>
