<svg width="64" height="64" viewBox="0 0 64 64" fill="none" xmlns="http://www.w3.org/2000/svg">
<path d="M50.1327 23.3157C50.1327 26.2257 50.0893 29.1435 50.1327 32.0457C50.1564 33.2113 49.797 33.9883 48.7424 34.5672C44.5753 36.8984 40.4477 39.2528 36.3043 41.6189C35.143 42.2794 33.9344 42.4853 33.2392 41.1837C32.544 39.8822 33.2076 38.907 34.5032 38.1999C37.5406 36.5487 40.5306 34.8159 43.5365 33.1064C45.7128 31.8631 45.7365 30.5538 43.572 29.3183C34.9535 24.397 26.3296 19.4939 17.7005 14.6089C16.7447 14.0689 15.6348 13.7192 15.6506 12.305C15.6506 10.9801 16.7091 10.6305 17.5978 10.1215C21.5477 7.85643 25.541 5.62632 29.4829 3.32628C30.6876 2.62306 31.7422 2.54924 32.9667 3.26412C38.1726 6.25573 43.3864 9.23179 48.6476 12.1263C49.8049 12.7634 50.1525 13.5599 50.1288 14.776C50.0932 17.62 50.1288 20.4833 50.1327 23.3157Z" fill="#0F172A"/>
<path d="M13.7171 45.0762C13.7171 41.327 13.7487 37.5816 13.7171 33.8324C13.7171 32.6669 14.0529 31.8626 15.0996 31.2798C19.318 28.9176 23.497 26.4855 27.7391 24.1544C30.2038 22.8023 31.4045 23.5599 31.4045 26.3961C31.4045 33.778 31.3532 41.1288 31.4045 48.4952C31.4045 49.8939 30.9464 50.7836 29.7022 51.4713C25.5825 53.7441 21.5181 56.1335 17.4023 58.3986C15.0324 59.7118 13.7685 58.9736 13.7527 56.32C13.7013 52.5708 13.7171 48.8449 13.7171 45.0762Z" fill="#00B795"/>
</svg>
